<?xml version="1.0" encoding="UTF-8" standalone="no"?>
<svg
   xmlns:dc="http://purl.org/dc/elements/1.1/"
   xmlns:cc="http://creativecommons.org/ns#"
   xmlns:rdf="http://www.w3.org/1999/02/22-rdf-syntax-ns#"
   xmlns:svg="http://www.w3.org/2000/svg"
   xmlns="http://www.w3.org/2000/svg"
   version="1.1"
   id="svg2"
   width="300"
   height="300"
   viewBox="0 0 300 300">
  <metadata
     id="metadata8">
    <rdf:RDF>
      <cc:Work
         rdf:about="">
        <dc:format>image/svg+xml</dc:format>
        <dc:type
           rdf:resource="http://purl.org/dc/dcmitype/StillImage" />
        <dc:title></dc:title>
      </cc:Work>
    </rdf:RDF>
  </metadata>
  <defs
     id="defs6" />
  <g
     id="g10">
    <circle
       style="fill:#ff6600;stroke-width:0"
       id="path1115"
       cx="150.53819"
       cy="148.24492"
       r="127.46758" />
    <circle
       style="fill:#d45500;stroke-width:0"
       id="path1115-3"
       cx="150.99094"
       cy="149.82619"
       r="87.546165" />
    <circle
       style="fill:#ff6600;stroke-width:0"
       id="circle1139"
       cx="150.53819"
       cy="148.24492"
       r="127.46758" />
    <circle
       style="fill:#d45500;stroke-width:0"
       id="circle1141"
       cx="150.99094"
       cy="149.82619"
       r="87.546165" />
    <circle
       style="fill:#ff6600;stroke-width:0"
       id="circle1143"
       cx="150.53819"
       cy="148.24492"
       r="127.46758" />
    <circle
       style="fill:#d45500;stroke-width:0"
       id="circle1145"
       cx="150.99094"
       cy="149.82619"
       r="87.546165" />
    <path
       style="fill:none;fill-rule:evenodd;stroke:#000000"
       id="path1147"
       d="m 145.86404,148.27428 c 2.66737,2.94181 -2.64952,5.04695 -4.88949,4.43334 -6.07018,-1.66284 -6.67211,-9.57164 -3.97719,-14.21233 4.82058,-8.30111 16.3053,-8.73929 23.53517,-3.52104 10.61011,7.65798 10.87293,23.1322 3.06489,32.858 -10.4069,12.96298 -29.99244,13.03522 -42.18085,2.60874 -15.33787,-13.12066 -15.21237,-36.86862 -2.15258,-51.50368 15.81715,-17.72502 43.7538,-17.39816 60.82652,-1.69643 20.1196,18.50394 19.58935,50.64459 1.24028,70.14935 -21.18474,22.51902 -57.53913,21.78418 -79.4722,0.78413 -24.921735,-23.86158 -23.981512,-64.43629 -0.32797,-88.795028 26.53569,-27.326817 71.33538,-26.180692 98.11786,0.128175 29.73364,29.207833 28.38124,78.235903 -0.58432,107.440703" />
  </g>
</svg>
